<?xml version="1.0" encoding="UTF-8"?><svg id="Layer_2" xmlns="http://www.w3.org/2000/svg" viewBox="0 0 1080 1080"><defs><style>.cls-1{fill:none;}</style></defs><rect class="cls-1" width="1080" height="1080"/><g id="New_ARt"><path d="M297.85,681.38v71.9h-26.88l-28.37-39.6v39.6h-23.43v-71.9h27.06l28.07,39.19v-39.19s23.55,0,23.55,0ZM316.88,716.05c0-23.43,17.07-35.92,45.02-35.92s44.96,12.61,44.96,35.92v2.62c0,23.43-17.25,35.92-44.96,35.92s-45.02-12.01-45.02-35.92v-2.62ZM361.9,737.1c13.2,0,19.8-7.85,19.8-18.49v-2.62c0-10.59-6.66-18.49-19.8-18.49s-19.8,7.67-19.8,18.49v2.62c0,10.88,6.36,18.49,19.8,18.49ZM504.56,681.38v71.9h-26.88l-28.37-39.6v39.6h-23.43v-71.9h27.06l28.07,39.19v-39.19h23.55ZM526.14,713.02h44.54v19.21h-44.54s0-19.21,0-19.21ZM615.94,681.38h31.81l31.99,71.9h-26.46l-5.17-12.55h-34.97l-5.47,12.55h-25.93l34.13-71.9h.06ZM641.69,725.74l-10.59-27.59-11.12,27.59h21.71ZM695.33,681.38h24.56v53.52h39.49v18.38h-64.05s0-71.9,0-71.9ZM773.05,716.05c0-24.32,17.54-35.92,44.72-35.92s41.27,9.16,42.82,30.92v.12h-25.21v-.12c-1.13-8.86-6.84-13.02-17.78-13.02-13.14,0-19.27,6.07-19.27,17.96v2.74c0,11.89,6.18,18.08,19.27,18.08,10.11,0,17.78-3.92,18.2-12.31v-.12h25.04v.12c-2.91,22.24-17.84,30.21-43.71,30.21s-44.01-12.13-44.01-35.92v-2.62l-.06-.12ZM515.26,325.29v76.71h128.39v-76.71h-128.39ZM860.76,505.06v-79.45h-65.89v-61.96h-127.44v61.96h-262.96l-56.55,60.6v-122.56h-128.75v282.59h128.69v-18.91l18.2-19.51,35.92,38.42h241.67v-141.17h23.85v63.15c0,43.11,34.91,78.02,78.02,78.02h115.25v-79.86h-65.89v-61.25h65.89v-.06ZM515.26,626.44l-83.25-89.2,83.25-89.14v178.34Z"/></g></svg>