<?xml version="1.0"?>
<svg xmlns="http://www.w3.org/2000/svg" xmlns:xlink="http://www.w3.org/1999/xlink" viewBox="0 0 140 46"
	 style="enable-background:new 0 0 140 46;" xml:space="preserve">
<style type="text/css">
	.st0{fill:#ffffff;}
</style>
					<path id="Shape" class="st0" d="M0.2,14.7C0,14.2,0,13.7,0.1,13.2s0.4-0.8,0.9-1l13.1-4.5c0.5-0.1,0.9-0.1,1.2,0.2
						c0.4,0.3,0.7,0.8,0.9,1.3c0.2,0.6,0.2,1.1,0.1,1.6c-0.1,0.5-0.4,0.8-0.9,0.9l-4.2,1.4l5.7,16.4c0.1,0.5,0.1,0.9-0.3,1.3
						s-0.9,0.7-1.5,0.9c-0.7,0.2-1.2,0.3-1.8,0.2c-0.6-0.1-0.9-0.4-1.1-0.9L6.5,14.9l-4.2,1.4c-0.4,0.1-0.9,0.1-1.2-0.2
						C0.7,15.7,0.4,15.3,0.2,14.7L0.2,14.7z"/>
					<path id="Shape_1_" class="st0" d="M29.8,26L26.2,6.1c-0.1-0.5,0.1-0.9,0.5-1.2c0.4-0.4,1-0.6,1.7-0.7C29,4,29.6,4,30.2,4.2
						c0.5,0.1,0.9,0.5,0.9,1l1.4,7.6l6.3-1.1l-1.4-7.6c-0.1-0.5,0.1-0.9,0.5-1.2s1-0.6,1.7-0.7C40.2,2,40.8,2,41.4,2.2
						c0.5,0.1,0.9,0.5,0.9,1L45.9,23c0.1,0.5-0.1,0.9-0.5,1.2c-0.4,0.4-1,0.6-1.7,0.7c-0.7,0.1-1.3,0.1-1.8-0.1
						c-0.5-0.2-0.9-0.5-0.9-1l-1.5-8.5l-6.3,1.1l1.5,8.5c0.1,0.5-0.1,0.9-0.5,1.2c-0.4,0.4-1,0.6-1.7,0.7c-0.7,0.1-1.3,0.1-1.8-0.1
						C30.2,26.8,29.9,26.5,29.8,26L29.8,26z"/>
					<path id="Shape_2_" class="st0" d="M55.9,22.1L55.1,1.9c0-0.4,0.1-0.8,0.4-1.1s0.7-0.5,1.1-0.5l6.6-0.2c5.3-0.2,7.9,2,8.1,6.5
						c0.1,3.3-1.1,5.5-3.6,6.6l4.2,6.9c0.1,0.1,0.2,0.4,0.2,0.6c0,0.6-0.3,1.2-0.9,1.8c-0.7,0.6-1.4,0.9-2.1,0.9
						c-0.7,0-1.3-0.3-1.6-0.9l-4.7-8.3l-2.1,0.1l0.3,7.6c0,0.5-0.2,0.9-0.7,1.1c-0.5,0.3-1.1,0.4-1.8,0.5c-0.7,0-1.3-0.1-1.8-0.4
						C56.1,22.9,55.9,22.6,55.9,22.1L55.9,22.1z M60.4,10.5l3.2-0.1c0.9,0,1.7-0.3,2.1-0.8c0.5-0.5,0.7-1.2,0.7-2.3
						c-0.1-1.1-0.3-1.8-0.8-2.2c-0.5-0.4-1.2-0.6-2.2-0.6l-3.2,0.1L60.4,10.5L60.4,10.5z"/>
					<path id="Shape_3_" class="st0" d="M81.8,22.1l1.6-20.1c0-0.5,0.3-0.9,0.8-1.1c0.5-0.2,1.1-0.3,1.8-0.2s1.2,0.2,1.7,0.5
						s0.7,0.7,0.7,1.1l-1.6,20.1c0,0.5-0.3,0.9-0.8,1.1c-0.5,0.2-1.1,0.3-1.8,0.3c-0.7-0.1-1.2-0.2-1.7-0.5
						C82,22.9,81.7,22.6,81.8,22.1L81.8,22.1z"/>
					<path id="Shape_4_" class="st0" d="M98.4,3.8c0.1-0.5,0.5-0.9,1.3-1.2s1.5-0.3,2.2-0.2c0.9,0.2,1.4,0.6,1.5,1.2l1.3,16.8
						l7.5-15.2c0.3-0.6,0.9-0.8,1.8-0.6c0.7,0.1,1.4,0.5,2,1s0.9,1.1,0.8,1.6c0,0.1-0.1,0.2-0.1,0.4L107,25.5
						c-0.3,0.5-0.7,0.8-1.4,1c-0.7,0.1-1.4,0.2-2.1,0s-1.5-0.4-2-0.8c-0.5-0.4-0.9-0.9-0.9-1.4L98.4,4.1C98.4,4,98.4,3.8,98.4,3.8
						L98.4,3.8z"/>
					<path id="Shape_5_" class="st0" d="M119.1,28.3l6.6-19.1c0.1-0.5,0.5-0.8,1-0.9c0.5-0.1,1-0.1,1.6,0.1l10.8,3.7
						c0.5,0.1,0.7,0.5,0.9,1c0.1,0.5,0.1,1-0.1,1.5c-0.2,0.6-0.5,1-0.9,1.4c-0.4,0.3-0.8,0.4-1.2,0.2l-8.1-2.8l-1.8,5.1l4.6,1.6
						c0.4,0.1,0.7,0.4,0.9,0.9c0.1,0.4,0.1,0.9-0.1,1.4c-0.1,0.5-0.4,0.9-0.8,1.1c-0.4,0.3-0.8,0.4-1.2,0.2l-4.6-1.6l-1.8,5.1
						l8.1,2.8c0.4,0.1,0.7,0.5,0.9,1c0.1,0.5,0.1,1-0.1,1.6c-0.2,0.5-0.5,1-0.9,1.3s-0.8,0.4-1.2,0.2l-10.8-3.7
						c-0.6-0.2-1-0.5-1.3-0.9C119,29.2,118.9,28.8,119.1,28.3L119.1,28.3z"/>
				<g transform="translate(38.855932, 35.823129)">
					<path id="Shape_6_" class="st0" d="M1.2,9.7c-0.1,0-0.2,0-0.4,0C0.7,9.5,0.6,9.3,0.5,9.1C0.4,8.8,0.3,8.6,0.3,8.3
						S0.2,7.8,0.2,7.5S0.3,7,0.4,6.8c0,0,0-0.1,0.1-0.3C0.5,6.3,0.7,6,0.8,5.8s0.3-0.6,0.4-1c0.1-0.4,0.3-0.7,0.5-1.1
						C1.8,3.4,2,3.1,2.1,2.8s0.3-0.5,0.4-0.6C2.6,2,2.6,1.9,2.7,1.8c0.1-0.1,0.1-0.2,0.2-0.3C3,1.4,3.1,1.2,3.1,1.1
						C3.2,1,3.3,0.8,3.4,0.7c0.1-0.1,0.2-0.2,0.3-0.3c0.1-0.1,0.2-0.1,0.4-0.2c0.1,0,0.2,0.1,0.3,0.1c0.1,0.1,0.1,0.1,0.2,0.1l0,0.2
						c0,0.1,0,0.1,0.1,0.1c0,0,0.1,0,0.1,0C4.9,0.9,5,0.9,5,0.9C5.1,1,5.2,1,5.3,1c0,0.1,0.1,0.1,0.1,0.1c0,0.1,0.1,0.1,0.1,0.1
						C5.6,1.5,5.8,1.8,5.9,2s0.1,0.5,0,0.7l0,0.1C5.9,2.9,6,3,6,3c0,0.1,0,0.1,0,0.2c0,0.1,0,0.1,0,0.2c0,0.1,0,0.1,0,0.3L6,3.8
						c0.1,0.1,0.2,0.1,0.4,0.1c0.1,0,0.3,0,0.4-0.1C7,3.7,7.1,3.6,7.2,3.6c0.1-0.1,0.2-0.1,0.3-0.1c0.1,0,0.1-0.1,0.2-0.1
						C7.9,3.2,8.1,3,8.2,2.9c0.1-0.1,0.3-0.3,0.4-0.4C9,2.3,9.3,2,9.5,1.7c0.3-0.3,0.5-0.6,0.7-1c0.1-0.1,0.2-0.1,0.3-0.1
						c0.1,0,0.2,0,0.4,0.1c0.1,0.1,0.2,0.1,0.4,0.1c0,0,0.1,0,0.1,0c0,0,0,0,0.1,0c0,0.1,0,0.2,0.1,0.3c0,0,0.1,0.1,0.1,0.1
						s0,0,0.1,0c0.1,0,0.1,0.1,0.1,0.1c0.1,0,0.1,0.1,0.1,0.1C11.9,1.7,12,1.9,12.2,2c0,0.1,0,0.2,0,0.3c0,0.1,0.1,0.2,0.1,0.3
						c0,0,0,0.1,0,0.1c0,0,0,0.1,0,0.1l-0.3,0l0,0.3c0,0.1,0,0.3,0,0.5C12.1,3.6,12,3.8,12,3.9c0,0.3,0,0.4,0,0.6c0,0.1,0,0.3,0,0.4
						c0,0.1,0,0.2-0.1,0.4c-0.1,0.1-0.1,0.2-0.1,0.4c0,0.6,0,1.2-0.2,1.7c-0.2,0.5-0.4,1-0.6,1.4c0,0.1-0.1,0.1-0.1,0.1
						c0,0.1-0.1,0.1-0.1,0.1c-0.1,0-0.2,0.1-0.2,0.1c-0.1,0-0.1,0.1-0.2,0.1c-0.1,0.1-0.2,0.1-0.3,0.1c-0.1,0-0.2,0.1-0.3,0.1
						C9.5,9.1,9.3,8.6,9.2,7.9c0-0.7,0.1-1.6,0.4-2.7c0.1,0,0.1-0.1,0.1-0.2V4.9l-0.1,0c0,0-0.1,0-0.1,0c0,0-0.1,0.1-0.1,0.1
						C9.2,5.2,8.9,5.4,8.6,5.6S7.9,6,7.6,6.2C7.3,6.3,7,6.5,6.6,6.6c-0.4,0.1-0.7,0.1-1,0.1c-0.8,0-1.5-0.4-1.9-1.2L3.6,5.3L3.4,5.5
						c0,0-0.1,0.1-0.1,0.2C3.3,5.8,3.2,6,3.1,6.1C3.1,6.3,3,6.5,3,6.6C2.9,6.8,2.9,6.9,3,7C2.9,7.1,2.8,7.3,2.7,7.3
						C2.6,7.5,2.5,7.6,2.5,7.7c0,0,0,0.1,0,0.1c0,0,0,0.1,0,0.1c0,0.1,0,0.1-0.1,0.1c0,0-0.1,0.1-0.1,0.1c0,0-0.1,0.1-0.1,0.1
						c0,0.1-0.1,0.1-0.1,0.1c0,0.1,0,0.1,0,0.1c0,0.1,0,0.1,0,0.1c0,0.1,0,0.1,0,0.2C1.9,9,1.8,9.2,1.8,9.3C1.7,9.4,1.7,9.5,1.6,9.6
						C1.5,9.6,1.5,9.7,1.4,9.7C1.4,9.7,1.3,9.7,1.2,9.7L1.2,9.7z"/>
					<path id="Shape_7_" class="st0" d="M13.4,8.3l0.1-0.1l0-0.3c0.2-0.5,0.4-1,0.6-1.4s0.4-0.9,0.7-1.4C14.9,5,15,4.8,15.1,4.6
						c0.1-0.1,0.1-0.3,0.2-0.5c0,0,0-0.1,0-0.1c0,0,0-0.1,0-0.1c0.1-0.1,0.2-0.3,0.3-0.4c0.1-0.1,0.1-0.3,0.2-0.4
						C15.9,2.9,16,2.8,16,2.6c0.1-0.1,0.2-0.3,0.3-0.5L16.5,2l0.1,0c0,0,0.1,0,0.1,0c0,0,0.1,0,0.1,0l0.2,0c0.3-0.1,0.5-0.3,0.7-0.5
						c0.2-0.2,0.4-0.5,0.6-0.9l0.1-0.2l0.2,0.1c0,0,0.1,0.1,0.2,0.1c0.1,0,0.2,0.1,0.3,0.1c0.2,0,0.4,0.1,0.5,0.1
						c0.1,0.1,0.3,0.1,0.4,0.2l0.1,0.1c0,0.1,0,0.2,0,0.3c0,0.1,0,0.1,0,0.2c0,0.2,0.1,0.4,0.1,0.5s0,0.4,0.1,0.6
						c0,0.1,0.1,0.3,0.1,0.5c0,0.1,0.1,0.4,0.1,0.5c0,0.2,0.1,0.5,0.1,0.7C20.9,4.6,20.9,4.8,21,5c0.1,0,0.1,0,0.1,0
						c0.1,0,0.2-0.1,0.4-0.1l0.1,0l0.1,0.1c0,0,0,0.1,0.1,0.1c0,0,0.1,0.1,0.1,0.1c0.1,0,0.2,0,0.3,0.1c0.1,0.1,0.1,0.1,0.1,0.1
						s0,0,0.1,0.1s0.1,0,0.1,0l0.2,0.1l-0.1,0.2c-0.1,0.2-0.2,0.4-0.4,0.5c-0.2,0.1-0.4,0.3-0.6,0.4c0,0.1,0,0.1,0,0.1
						c0,0.1,0,0.1,0,0.2c0,0.1,0.1,0.4,0.1,0.5s0,0.4,0,0.6c-0.1,0.2-0.2,0.4-0.3,0.6c-0.1,0.1-0.3,0.3-0.4,0.4
						c-0.1,0.1-0.3,0.3-0.5,0.4c-0.2,0.1-0.4,0.1-0.6,0.1c-0.1,0-0.2-0.1-0.2-0.1c-0.1,0-0.1-0.1-0.1-0.1c-0.1-0.1-0.1-0.1-0.1-0.1
						l-0.1-0.1l0.1-0.2c0-0.1,0-0.1,0-0.2S19.1,8.8,19,8.7c0,0-0.1-0.1-0.1-0.1c0,0-0.1-0.1-0.1-0.1l-0.3-0.3L19,8.2
						c0.3-0.1,0.4-0.1,0.5-0.3c0.1-0.1,0.1-0.3,0.1-0.6c-0.2,0-0.4-0.1-0.5,0c-0.1,0-0.3,0.1-0.4,0.1c-0.2,0.1-0.4,0.1-0.6,0.1
						c-0.2,0-0.4,0.1-0.6,0.1c-0.1,0-0.3,0-0.4,0l-0.1,0l0-0.1c0,0,0,0,0-0.1c0,0,0,0-0.1-0.1c0-0.1-0.1-0.1-0.1-0.2
						c-0.1-0.1-0.1-0.2,0-0.3c-0.1-0.1-0.1-0.2-0.1-0.3c0,0.1-0.1,0.1-0.1,0.2c0,0.1,0,0.1-0.1,0.2L16.3,7l-0.1,0c0,0,0,0,0,0.1
						c0,0,0,0.1,0,0.1l0.1,0.1l-0.1,0.1c0,0,0,0.1-0.1,0.1c0,0-0.1,0-0.1,0.1c0,0.1,0,0.2-0.1,0.3c0,0.1-0.1,0.1-0.1,0.3
						c0,0.1-0.1,0.3-0.1,0.4s-0.1,0.3-0.1,0.4L15.6,9c0,0.1-0.1,0.1-0.1,0.1c-0.1,0-0.1,0.1-0.2,0.1c-0.1,0-0.1,0.1-0.2,0.1l0,0.1
						l-0.2,0c-0.1,0-0.2,0-0.2,0.1c-0.1,0-0.1,0-0.1,0l-0.1,0c-0.1-0.1-0.2-0.2-0.2-0.2c-0.1-0.1-0.1-0.1-0.2-0.1L13.9,9
						c0-0.1-0.1-0.1-0.1-0.2c0-0.1,0-0.1,0-0.1c0-0.1,0-0.2-0.1-0.2L13.4,8.3L13.4,8.3z M17.4,5.1c-0.1,0.1-0.2,0.4-0.4,0.5
						c0.1,0,0.1,0,0.1,0s0.1,0,0.1,0c0.3,0,0.6,0,0.8-0.1c0.2,0,0.5-0.1,0.8-0.1c-0.1-0.3-0.1-0.6-0.2-0.9c-0.1-0.3-0.1-0.6-0.3-0.9
						l-0.1,0.1c-0.2,0.2-0.4,0.5-0.6,0.7C17.6,4.7,17.5,4.9,17.4,5.1L17.4,5.1L17.4,5.1z"/>
					<path id="Shape_8_" class="st0" d="M24.5,8.4c0,0-0.1,0-0.1-0.1c0-0.1-0.1-0.1-0.1-0.2h0.1c-0.1-0.2-0.1-0.4,0-0.5
						c0-0.1,0.1-0.3,0.1-0.4c0-0.1,0.1-0.3,0.1-0.4c0-0.1,0-0.3,0-0.4c0,0,0.1,0,0.1,0c0-0.1,0-0.1,0.1-0.2c0-0.1,0-0.1,0-0.2
						c0-0.1,0-0.1,0-0.2c0.1-0.3,0.2-0.5,0.3-0.8s0.1-0.5,0.1-0.8c0.1-0.3,0.1-0.5,0.1-0.8c0.1-0.3,0.1-0.5,0.3-0.7
						c0.1,0,0.2,0,0.4,0c0.1,0.1,0.2,0.1,0.2,0.1c0.3-0.2,0.5-0.4,0.7-0.7c0.2-0.3,0.4-0.6,0.6-0.8c0.2-0.3,0.4-0.5,0.7-0.7
						s0.6-0.3,0.9-0.4c0.2,0.1,0.4,0.3,0.7,0.4c0.2,0.1,0.4,0.4,0.6,0.6c0.1,0,0.1,0.1,0.2,0.1c0.1,0.1,0.1,0.1,0.2,0.1v0.2
						c0.1,0.1,0.2,0.2,0.3,0.4c0.1,0.1,0.1,0.3,0.2,0.4c0.1,0.1,0.1,0.3,0.2,0.5c0.1,0.1,0.1,0.3,0.2,0.4c0,0.1,0,0.1,0,0.1
						s0,0.1,0,0.1c0,0,0,0.1,0,0.1c0,0.1,0,0.1,0,0.1c0,0.4-0.2,0.8-0.4,1.1c-0.2,0.3-0.6,0.5-0.9,0.6c-0.4,0.1-0.7,0.3-1.2,0.4
						c-0.4,0.1-0.8,0.3-1.1,0.4c0,0,0,0.1,0.1,0.1s0.1,0,0,0.1c0.3,0.1,0.4,0.3,0.6,0.4C28.8,7,28.9,7,29.1,7.1
						c0.1,0.1,0.3,0.1,0.4,0.1c0.1,0,0.4,0.1,0.6,0.1c0.2,0.1,0.4,0.1,0.6,0.1c0.1,0,0.3,0.1,0.4,0.1c0.1,0,0.2,0,0.4,0.1
						c0.1,0,0.3,0,0.5,0.1C32,7.9,32.1,8,32.2,8.1c0.1,0.1,0.1,0.3,0.1,0.4c0,0.1,0,0.2,0,0.4c0,0.1-0.1,0.2-0.1,0.3
						c0,0,0,0.1,0.1,0h0.1c-0.1,0-0.1,0.1-0.1,0.1c0,0.1-0.1,0.1-0.1,0.2c0,0.1-0.1,0.1-0.1,0.1c-0.1,0.1-0.1,0.1-0.2,0.1
						c-0.3,0.1-0.7,0.1-1.1,0c-0.5-0.1-1.1-0.3-1.8-0.6C28.5,9,28.2,8.9,28,8.8c-0.2-0.1-0.4-0.2-0.6-0.3c-0.1-0.1-0.3-0.2-0.4-0.4
						c-0.1-0.1-0.3-0.3-0.5-0.4c0,0,0,0,0,0.1s0,0,0,0.1c0,0.3-0.1,0.6-0.2,0.8C26.1,8.8,26,9,25.8,9.2c-0.1,0-0.2,0-0.3,0
						s-0.1,0.1-0.1,0.1c-0.1,0-0.1,0-0.2,0c0,0-0.1,0-0.1-0.1c0,0-0.1-0.1-0.1-0.1c0,0-0.1,0-0.2,0c0-0.1-0.1-0.1-0.1-0.2
						c0-0.1-0.1-0.1-0.2-0.1c0-0.1,0-0.1,0-0.2c0-0.1,0-0.1,0-0.1C24.5,8.6,24.5,8.5,24.5,8.4C24.5,8.4,24.5,8.5,24.5,8.4L24.5,8.4z
						 M28.6,2.8c-0.1,0.1-0.2,0.3-0.4,0.4c-0.1,0.1-0.2,0.3-0.4,0.4c-0.1,0.1-0.2,0.3-0.4,0.4c-0.1,0.1-0.1,0.4-0.2,0.6
						c0.4,0,0.7-0.1,1.1-0.3c0.4-0.1,0.7-0.3,1.1-0.4c0-0.3-0.1-0.6-0.3-0.7C29,3,28.8,2.9,28.6,2.8L28.6,2.8z"/>
					<path id="Shape_9_" class="st0" d="M34.1,7.3C34.1,7.2,34.1,7.2,34.1,7.3c0-0.1,0-0.1,0-0.1c0-0.1,0-0.1,0-0.1
						c0,0,0.1,0,0.1-0.1c0-0.5,0.1-0.9,0.3-1.4c0.1-0.4,0.3-0.8,0.4-1.2c0.1-0.4,0.3-0.8,0.4-1.1s0.3-0.8,0.4-1.3
						C35.9,1.9,36,1.8,36,1.6s0.1-0.3,0.2-0.4s0.1-0.3,0.3-0.4c0.1-0.1,0.2-0.3,0.4-0.4c0.1,0,0.1,0,0.2,0c0.1,0,0.1,0,0.2,0.1
						c0.1,0,0.1,0.1,0.2,0.1c0.1,0,0.1,0,0.2,0c0,0,0.1,0.1,0.1,0.1c0,0.1,0.1,0.1,0.1,0.1l0.2,0c0.1,0.1,0.2,0.2,0.3,0.4
						c0.1,0.1,0.1,0.3,0.2,0.4c0,0.1,0,0.3,0,0.4c0,0.1-0.1,0.2-0.3,0.3v0.1c0,0,0,0.1,0,0.1c0,0,0,0,0,0.1s0,0.1,0.1,0.1
						c-0.1,0.1-0.2,0.1-0.3,0.3c-0.1,0.1-0.1,0.2-0.2,0.4c-0.1,0.1-0.1,0.3-0.1,0.4c0,0.1-0.1,0.2-0.1,0.4c0.2-0.3,0.5-0.5,0.9-0.7
						c0.3-0.2,0.6-0.4,0.9-0.6c0.2-0.1,0.4-0.3,0.5-0.4s0.3-0.2,0.4-0.4s0.3-0.2,0.5-0.3c0.1-0.1,0.3-0.2,0.5-0.3c0.1,0,0.1,0,0.2,0
						c0.1,0,0.1,0,0.1,0.1c0-0.1,0-0.1,0-0.1c0,0-0.1-0.1,0-0.1c0.1,0,0.3-0.1,0.4-0.1s0.2-0.1,0.4-0.1c0.1,0.1,0.1,0.2,0.3,0.3
						c0.1,0.1,0.2,0.1,0.4,0.1c0.1,0.1,0.1,0.2,0.2,0.2c0.1,0.1,0.1,0.1,0.2,0.1c0.1,0.1,0.1,0.1,0.2,0.2c0.1,0.1,0.1,0.2,0.1,0.3
						c0,0.1-0.1,0.1-0.1,0.2c-0.1,0.1-0.1,0.2-0.1,0.3C43,2.8,42.9,3,42.7,3.1S42.2,3.4,42,3.5c-0.2,0.1-0.4,0.3-0.7,0.4
						c-0.2,0.1-0.4,0.3-0.7,0.4c-0.1,0.1-0.1,0.1-0.2,0.2c-0.1,0.1-0.1,0.1-0.2,0.1c-0.1,0.1-0.1,0.1-0.2,0.1C40,4.9,40,4.9,40,5
						h-0.1c0,0-0.1,0-0.1,0c0,0.1-0.1,0.1-0.1,0.1s-0.1,0.1-0.1,0.1c0.1,0.3,0.4,0.6,0.6,0.7c0.2,0.1,0.5,0.3,0.8,0.4
						c0.3,0.1,0.6,0.1,1,0.1c0.4,0,0.7,0,1.1,0c0,0,0.1,0,0.1-0.1s0-0.1,0.1,0c0.1,0,0.2,0.1,0.3,0.1c0.1,0.1,0.1,0.1,0.2,0.2
						c0.1,0.1,0.1,0.1,0.2,0.2c0.1,0.1,0.1,0.1,0.2,0.2c0,0.4-0.1,0.7-0.4,0.9c-0.2,0.2-0.5,0.4-0.8,0.6c-0.5,0-0.9,0-1.2,0
						c-0.4,0-0.7-0.1-1-0.3c0,0-0.1,0-0.1-0.1c0,0,0-0.1-0.1-0.1c-0.1,0-0.1-0.1-0.2-0.1c-0.1,0-0.1,0-0.2,0c-0.1,0-0.2-0.1-0.4-0.2
						c-0.1-0.1-0.3-0.2-0.5-0.3c-0.2-0.1-0.4-0.3-0.5-0.4c-0.1-0.1-0.3-0.3-0.4-0.4c0,0-0.1-0.1-0.1-0.1s-0.1,0-0.1,0
						c-0.3,0.2-0.5,0.4-0.7,0.6c-0.2,0.3-0.4,0.5-0.6,0.8c-0.2,0.3-0.4,0.5-0.6,0.8c-0.2,0.3-0.4,0.4-0.8,0.6c-0.1,0-0.1,0-0.2,0
						c-0.1,0-0.1-0.1-0.2-0.1c-0.1-0.1-0.1-0.1-0.2-0.1s-0.1-0.1-0.2-0.1c0-0.1,0-0.2-0.1-0.3c-0.1-0.1-0.1-0.2-0.1-0.3
						c-0.1-0.1-0.1-0.1-0.1-0.3c0-0.1,0-0.1,0.1-0.3c-0.1-0.1-0.2-0.1-0.3-0.2c0.1-0.1,0.1-0.1,0.1-0.1c0-0.1,0-0.1,0-0.1
						c0-0.1,0-0.1-0.1-0.1C34.1,7.3,34.1,7.3,34.1,7.3C34.1,7.2,34.2,7.2,34.1,7.3C34.1,7.3,34.1,7.3,34.1,7.3L34.1,7.3z"/>
					<path id="Shape_10_" class="st0" d="M46.2,9.1C46.1,9,46,8.9,46,8.8c0-0.1-0.1-0.1-0.2-0.2c0-0.1,0-0.3-0.1-0.4
						c0-0.1-0.1-0.3-0.1-0.5c0-0.1-0.1-0.4-0.1-0.5c0-0.1,0-0.3,0-0.5c0-0.1,0-0.1,0.1-0.2c0-0.1,0.1-0.1,0.1-0.2
						c0-0.1,0.1-0.1,0.1-0.2c0-0.1,0-0.1,0-0.2c0.1,0,0.1,0,0.1-0.1c0-0.1,0.1-0.1,0.1,0c0.1-0.2,0.1-0.4,0.2-0.5
						c0.1-0.1,0.1-0.3,0.2-0.4c0.1-0.1,0.1-0.3,0.2-0.4c0.1-0.1,0.1-0.3,0.2-0.5c-0.1-0.1-0.2-0.3-0.3-0.4c-0.1-0.1-0.1-0.3-0.1-0.5
						c0-0.1-0.1-0.3-0.1-0.5c0-0.1-0.1-0.3-0.1-0.5c0.1-0.1,0.2-0.3,0.4-0.4c0.1-0.1,0.3-0.2,0.5-0.2c0.1-0.1,0.4-0.1,0.6-0.1
						c0.2,0,0.4-0.1,0.6-0.1c0.4-0.1,0.8-0.2,1.1-0.3c0.3-0.1,0.6-0.1,0.9-0.2s0.6-0.1,0.9-0.1s0.7-0.1,1.1-0.1c0,0,0,0,0,0h0.1
						c0,0.1,0.1,0.1,0.1,0.1V0.5V0.5c0,0,0,0,0.1,0c0,0,0.1,0,0.1,0h0.1c0,0,0,0,0-0.1c0.1,0.2,0.2,0.3,0.4,0.4
						c0.1,0.1,0.3,0.2,0.5,0.3c0,0.1,0,0.1,0,0.1c0,0,0,0.1,0,0.1c0,0,0,0.1,0,0.1c0,0,0,0.1,0,0.1c-0.1,0.2-0.3,0.4-0.4,0.5
						c-0.1,0.1-0.4,0.2-0.5,0.3c-0.2,0.1-0.4,0.1-0.6,0.1c-0.2,0-0.4,0.1-0.7,0.1c-0.2,0-0.4,0.1-0.7,0.1c-0.2,0.1-0.4,0.1-0.7,0.3
						c-0.1,0-0.1,0-0.2,0s-0.1,0-0.1,0c-0.1,0-0.1,0-0.2,0.1c-0.1,0-0.1,0-0.3,0c-0.1,0.1-0.1,0.1-0.2,0.1c-0.1,0-0.2,0.1-0.3,0.1
						c0,0.1,0.1,0.2,0.1,0.3c0,0.1,0,0.1,0,0.2c0.4,0,0.7,0,1.2,0c0.4,0,0.8-0.1,1.2-0.1c0,0,0,0.1,0,0.1c0,0,0,0.1,0,0.1
						c0.1,0.1,0.1,0.1,0.2,0.2c0.1,0.1,0.1,0.1,0.2,0.2c0.1,0.1,0.1,0.1,0.2,0.2c0.1,0.1,0.1,0.1,0.3,0.1c0,0.1,0.1,0.1,0.1,0.3
						c0,0.1,0,0.2,0,0.3c-0.1,0.1-0.3,0.2-0.5,0.3c-0.1,0.1-0.3,0.2-0.5,0.3C51.2,5.9,51,6,50.8,6c-0.2,0.1-0.4,0.1-0.7,0.1H50
						c0,0-0.1,0-0.1-0.1c-0.1,0-0.2,0.1-0.3,0s-0.3,0-0.4,0c-0.1,0-0.3-0.1-0.4-0.1c-0.1,0-0.3,0-0.4-0.1c-0.1,0.2-0.3,0.4-0.4,0.7
						s-0.3,0.5-0.4,0.8c0.4,0.1,0.6,0.1,0.9,0.1c0.2,0,0.4,0,0.6-0.1c0.2,0,0.4-0.1,0.6-0.1c0.2,0,0.5,0,0.8,0
						c0.2-0.1,0.4-0.1,0.7-0.2C51.5,7.1,51.8,7,52,7c0.1,0,0.1,0.1,0.2,0.1c0.1,0.1,0.1,0.1,0.1,0.2c0.1,0.1,0.1,0.1,0.1,0.2
						c0.1,0.1,0.1,0.1,0.2,0.1c0,0,0.1,0.1,0.1,0.1c0,0.1,0,0.1,0,0.1c0,0.1,0,0.1,0.1,0.1c0,0,0.1,0,0.1,0
						c-0.1,0.3-0.3,0.6-0.5,0.7c-0.2,0.2-0.4,0.3-0.7,0.4c-0.3,0.1-0.5,0.1-0.8,0.2c-0.3,0.1-0.6,0.1-1,0.1c-0.1,0-0.1,0-0.2,0
						c-0.1,0-0.1,0-0.2,0c-0.2,0-0.5,0.1-0.8,0.1c-0.3,0-0.6,0.1-0.9,0.1s-0.6-0.1-0.9-0.1C46.6,9.4,46.4,9.2,46.2,9.1L46.2,9.1z"/>
					<path id="Shape_11_" class="st0" d="M55.5,2.6c0-0.1,0-0.1,0-0.2c0-0.1,0-0.1-0.1-0.2c0-0.1-0.1-0.2-0.1-0.3
						c0-0.1-0.1-0.3-0.1-0.4c0-0.1,0-0.1,0.1-0.2c0,0,0.1-0.1,0.1-0.1L55.4,1h0.2c0.1,0,0.1,0,0.2,0H56c0.3,0,0.6,0,1,0
						c0.3,0,0.7-0.1,1-0.1c0.4-0.1,0.8-0.1,1.2-0.1c0-0.1,0.1-0.1,0.1-0.2c0,0,0-0.1,0-0.1l0.1-0.1c0.2,0,0.3,0,0.4,0.1
						c0.1,0.1,0.1,0.1,0.2,0.1c0.2,0,0.4,0,0.7-0.1c0.2,0,0.4-0.1,0.7-0.1c0.3,0,0.7-0.1,1-0.1c0.4,0,0.7-0.1,1-0.1
						c0.1,0,0.3,0,0.4,0c0.1,0,0.2,0,0.4,0l0.1,0.1c0,0.1,0.1,0.1,0.1,0.1c0.1,0,0.1,0.1,0.2,0.1c0.1,0.1,0.3,0.2,0.4,0.4
						C65,1.4,65,1.6,65,1.9L64.9,2c0,0-0.1,0.1-0.1,0.1l-0.1,0.1h-0.1c-0.1,0-0.1,0-0.2,0c0,0-0.1,0-0.1,0.1c0,0-0.1,0-0.1,0
						c0,0-0.1,0-0.1,0c-0.1,0-0.1,0-0.2,0h-0.2c-0.3,0-0.5,0-0.8,0.1c-0.3,0-0.6,0.1-0.9,0.1c-0.2,0-0.4,0.1-0.6,0.1
						c-0.2,0-0.4,0-0.5,0.1c-0.1,0.2-0.1,0.4-0.2,0.6c-0.1,0.1-0.1,0.3-0.2,0.5c-0.1,0.1-0.1,0.3-0.2,0.5c-0.1,0.1-0.1,0.4-0.2,0.6
						c-0.1,0.1-0.2,0.3-0.3,0.4c-0.1,0.1-0.1,0.3-0.1,0.5c-0.1,0.1-0.2,0.3-0.3,0.4c-0.1,0.1-0.1,0.3-0.1,0.4l-0.1,0.2
						c-0.1,0.1-0.1,0.1-0.1,0.1c0,0,0,0.1-0.1,0.1c0,0.1-0.1,0.2-0.1,0.3c0,0,0,0.1-0.1,0.1c0,0.1,0,0.1,0,0.1c0,0.1,0,0.1-0.1,0.2
						c0,0.1,0,0.1,0,0.1c0,0.1,0,0.1,0,0.1c0,0.1,0,0.1,0,0.1c0,0.1,0,0.1,0,0.1c0,0,0.1,0.1,0.1,0.1c0,0,0,0.1,0.1,0.1
						c0,0,0,0,0.1,0c0,0,0,0,0.1,0c0.1,0.1,0.1,0.1,0.2,0.1l0.1,0.1c0.1,0.3,0,0.5-0.1,0.7c-0.1,0.2-0.4,0.3-0.7,0.3l-0.2,0
						c-0.1-0.1-0.1-0.1-0.1-0.1c-0.1,0-0.1-0.1-0.2-0.1c-0.1,0-0.1-0.1-0.1-0.1c0,0,0,0-0.1,0c0,0-0.1,0-0.1,0
						c-0.1,0-0.1-0.1-0.2-0.1l-0.1-0.1c0-0.1,0-0.1,0-0.2c-0.1-0.1-0.1-0.2-0.1-0.3c0-0.1-0.1-0.2-0.1-0.4c0-0.1-0.1-0.2-0.1-0.3
						C57,8,57,7.9,57,7.9c0-0.6,0-1.1,0.1-1.4c0.1-0.4,0.3-0.8,0.4-1.1c0.1-0.2,0.1-0.4,0.2-0.6c0.1-0.2,0.1-0.4,0.2-0.6l0.1-0.1
						c0.1-0.1,0.1-0.1,0.1-0.1c0-0.1,0-0.2,0.1-0.3c0-0.1,0.1-0.2,0.1-0.3c0-0.1,0.1-0.1,0.1-0.2c0-0.1,0.1-0.1,0.1-0.2h-0.1
						c0,0-0.1,0-0.1,0c-0.1,0-0.2,0-0.3,0c-0.1,0-0.1,0-0.1,0c-0.1,0-0.1,0.1-0.2,0.1h-0.2h-0.1h-0.1c-0.1,0-0.2,0-0.2,0h-0.2h-0.1
						h-0.1h-0.1c-0.1,0-0.1,0-0.2,0c-0.1,0-0.1,0-0.3-0.1l-0.1-0.1c-0.1-0.1-0.1-0.1-0.1-0.1L55.5,2.6L55.5,2.6L55.5,2.6z"/>
				</g>
				<g transform="translate(23.432203, 39.640348)">
					<path id="Shape_12_" class="st0" d="M9.7,2.2c-0.4,0-0.9,0.1-1.4,0.1c-0.5,0-1.1,0-1.7,0.1c-0.6,0-1.2,0-1.8,0s-1.2,0-1.8-0.1
						C2.6,2.2,2,2.2,1.6,2.1C1.1,2.1,0.7,2,0.3,1.8c-0.1-0.1-0.1-0.2,0-0.3c0-0.1,0.1-0.2,0.1-0.3c0.1-0.1,0.1-0.2,0.1-0.3
						c0-0.1,0-0.2,0-0.3c0.4-0.1,0.9-0.1,1.5-0.1c0.5,0,1.1-0.1,1.6-0.1c0.6,0,1.1,0,1.7,0c0.6,0,1.2,0,1.7,0c0.6,0,1.1,0,1.7-0.1
						s1-0.1,1.5-0.1L9.7,2.2L9.7,2.2z"/>
					<path id="Shape_13_" class="st0" d="M92.5,2.2c-0.4,0-0.9,0.1-1.4,0.1c-0.5,0-1.1,0-1.7,0.1c-0.6,0-1.2,0-1.8,0
						c-0.6,0-1.2,0-1.8-0.1c-0.6,0-1.1-0.1-1.6-0.1c-0.5-0.1-0.9-0.1-1.3-0.3C83,1.8,83,1.7,83,1.6c0-0.1,0.1-0.2,0.1-0.3
						c0.1-0.1,0.1-0.2,0.1-0.3s0-0.2,0-0.3c0.4-0.1,0.9-0.1,1.5-0.1c0.5,0,1.1-0.1,1.6-0.1c0.6,0,1.1,0,1.7,0c0.6,0,1.2,0,1.7,0
						c0.6,0,1.1,0,1.7-0.1c0.5,0,1-0.1,1.5-0.1L92.5,2.2L92.5,2.2z"/>
				</g>
</svg>