<?xml version="1.0" encoding="UTF-8"?>
<svg xmlns="http://www.w3.org/2000/svg" viewBox="0 0 144 37" width="144" height="37">
  <path fill="#ffffff" d="M130.242 16.72c0-3.917-1.561-6.216-4.192-6.216 0 0-.502.033-.75.075-.953.154-1.238.414-1.238 1.595v9.317c0 1.27.786 1.346 1.898 1.41 2.71.15 4.282-2.268 4.282-6.181zm1.32-5.713c1.3 1.311 2.007 3.335 2.007 5.738 0 2.69-.903 4.913-2.546 6.225-1.272 1.038-2.873 1.508-5.286 1.508-2.758 0-4.562-.248-5.208-.342-.645-.096-.977-.165-.977-.65 0-.335.22-.618.526-.618h.45c.152 0 .303-.12.376-.29.044-.16.068-.295.068-.876v-9.898c0-.58-.024-.716-.068-.875-.073-.17-.224-.292-.375-.292h-.451c-.305 0-.526-.282-.526-.617 0-.485.332-.554.977-.65.646-.093 2.45-.342 5.208-.342 2.756 0 4.469.6 5.824 1.979zm-15.454 5.784c0-3.774-1.546-6.151-4-6.151-2.429 0-3.932 2.332-3.932 6.197 0 3.776 1.481 6.063 3.978 6.063 2.43 0 3.954-2.377 3.954-6.109zm-14.505 0c0-3.774-1.546-6.151-3.999-6.151-2.43 0-3.932 2.332-3.932 6.197 0 3.776 1.48 6.063 3.977 6.063 2.43 0 3.954-2.377 3.954-6.109zm10.529-7.75c4.418 0 7.289 3 7.289 7.662 0 4.753-2.85 7.796-7.334 7.796-3.567 0-6.122-2.024-6.941-5.289a.248.248 0 0 1-.024-.071c-.073-.368-.4-.393-.479-.004-.003.014-.01.027-.016.04-.83 3.31-3.396 5.324-7.044 5.324-4.376 0-7.226-3.043-7.226-7.684 0-4.753 2.828-7.774 7.27-7.774 3.645 0 6.235 2.042 7.032 5.376.081.38.406.352.476-.013 0-.005.003-.01.004-.013.812-3.331 3.363-5.35 6.993-5.35zm-21.584 2.395-.311-1.545c-.09-.407-.341-.558-.787-.558h-9.59c-.743 0-1.016.16-1.016.652 0 .331.273.619.57.619h.447c.13 0 .309.135.355.333.068.18.089.293.089.87v9.942c0 .6-.026.708-.07.866-.074.177-.225.291-.374.291h-.452c-.305 0-.57.286-.57.621 0 .49.265.645 1.022.645h4.07c.814 0 1.085-.155 1.085-.645 0-.335-.24-.62-.585-.62h-.5a.56.56 0 0 1-.471-.292c-.054-.158-.054-.265-.054-.866l-.003-3.623c0-.5.069-.715.204-.806.101-.07.263-.085.898-.085h1.824c.928 0 1.061.067 1.128.512l.023.146c.067.378.265.578.596.578.466 0 .62-.267.62-1.044v-1.87c0-.777-.154-1.045-.62-1.045-.33 0-.53.178-.596.556l-.017.139c-.067.444-.2.511-1.128.511h-1.83c-.635 0-.797-.015-.898-.086-.135-.09-.204-.305-.204-.805v-2.64c0-1.18.134-1.341 1.343-1.341h2.84c1.03 0 1.475.072 1.692.643.103.271.193.435.218.478.15.29.355.348.57.348.403 0 .6-.31.482-.88zm52.255 5.775c-.71-.732-1.283-1.178-3.03-2.4-.47-.331-.82-.585-1.093-.78-.439-.336-.793-.689-1.016-1.023-.184-.245-.24-.583-.24-.91 0-.912.663-1.498 1.683-1.498.723 0 1.484.25 2.078.715.464.36.557.447 1.053 1.203.204.284.35.375.586.375.379 0 .639-.24.639-.53 0-.071 0-.205-.041-.312l-.529-2.404c-.09-.395-.297-.62-.623-.62-.177 0-.248.02-.468.18-.19.127-.36.2-.508.2-.085 0-.2-.025-.3-.044a7.458 7.458 0 0 1-.562-.136 8.94 8.94 0 0 0-1.907-.2c-2.434 0-4.066 1.427-4.066 3.581 0 .887.284 1.684.842 2.335.688.795.883.928 2.977 2.403 1.272.887 1.867 1.378 2.346 1.908.47.536.72 1.068.72 1.669 0 1.177-.98 1.983-2.416 1.983-1.264 0-2.502-.672-3.27-1.758l-.317-.442a.687.687 0 0 0-1.254.397c0 .11.018.31.059.445l.555 2.225c.132.53.315.734.685.734.196 0 .305-.044.513-.204.192-.175.285-.22.473-.22.125 0 .16.025.48.11.628.2 1.503.314 2.32.314 2.92 0 4.828-1.695 4.828-4.268 0-1.14-.449-2.25-1.197-3.028zM42.41 10.383c1.899.733 2.658 2.811 2.658 6.03 0 3.9-1.594 6.384-4.135 6.384-2.61 0-4.157-2.391-4.157-6.338 0-2.546.363-4.55 2.15-6.312 1.79-1.763 3.461-1.511 5.09-3.623.69-.897.68-1.666.156-1.816-.493-.14-.809.514-1.29.83-1.764 1.157-3.755.08-4.823-1.125-1.086-1.226-2.498-1.18-3.33-.997-.36.079-.564-.208-.17-.509.9-.688 2.74-.734 3.876.3.968.884 2.267 1.586 3.226 1.403.572-.11.623-.77-.03-1.004-1.82-.652-1.644-2.731-4.147-3.45-2.952-.85-5.624 1.937-6.363 4.698-.213.794.263 1.248 1.004.928 2.455-1.061 3.063.42 5.148 1.248.932.374 2.056.286 2.67.166.514-.102.516.415.227.514-1.399.478-2.827 1.208-3.672 1.84-2.02 1.36-3.186 3.764-3.186 6.886 0 4.851 2.979 8.033 7.551 8.033 4.69 0 7.669-3.182 7.669-8.149 0-2.855-.905-4.987-2.717-6.33-1.05-.778-2.004-1.11-2.983-.995-1.185.14-1.343 1.043-.422 1.388zm-22.727.112c.39-.055.918.022.918 1.157v9.983c0 .597 0 .712-.069.892-.04.155-.224.266-.377.266h-.44c-.305 0-.573.29-.573.62 0 .492.268.643 1.013.643h4.03c.703 0 .954-.151.954-.617 0-.356-.227-.646-.531-.646h-.423a.47.47 0 0 1-.424-.266c-.04-.18-.06-.31-.06-.892v-3.378c0-1.025.089-1.11.907-1.11h3.006c.44 0 .664.07.78.199.1.135.1.22.1 1.047v3.242c0 .582 0 .712-.055.892a.494.494 0 0 1-.403.266h-.422c-.307 0-.576.29-.576.62 0 .492.24.643.998.643h4.02c.777 0 1.022-.151 1.022-.643 0-.33-.245-.62-.573-.62h-.448c-.154 0-.33-.111-.378-.266-.061-.18-.077-.31-.077-.892v-9.983c0-.556.016-.71.077-.875.049-.147.224-.282.378-.282h.448c.304 0 .573-.264.573-.628 0-.488-.27-.638-1.021-.638h-4.021c-.758 0-1.025.15-1.025.638 0 .364.267.628.603.628h.422c.15 0 .323.111.403.282.055.164.055.295.055.875v2.735c0 .824 0 .911-.1 1.047-.116.129-.34.2-.78.2h-3.006c-.818 0-.907-.086-.907-1.113v-2.87c0-.555.02-.71.06-.874a.5.5 0 0 1 .424-.282h.423c.304 0 .548-.264.548-.628 0-.488-.244-.638-.971-.638h-7.666c-.59 0-.842.176-.842.62 0 .357.224.577.711.622.538.07.774.245.774.58 0 .13-.024.311-.087.532 0 0-2.117 7.154-2.45 8.243-.056.18-.246.223-.31.021-.34-1.07-2.48-7.883-2.48-7.883-.183-.536-.228-.732-.228-.936 0-.398.158-.533.748-.602.492-.07.716-.244.716-.596 0-.4-.243-.6-.749-.6H7.984c-.517 0-.773.244-.773.67 0 .331.175.482.63.595.512.135.691.255.822.577.048.095.098.27.182.511 0 0 .747 2.217.797 2.377.14.453.09.865-.03 1.259-.044.14-1.211 3.548-1.64 4.786-.068.2-.27.207-.333.028-.386-1.118-2.828-8.069-2.828-8.069l-.175-.507a1.563 1.563 0 0 1-.08-.496c0-.355.199-.51.687-.556.573-.048.796-.199.796-.575 0-.4-.223-.6-.728-.6H.745c-.51 0-.745.2-.745.575 0 .36.147.514.619.6.709.156.814.266 1.143 1.178l4.342 11.699c.306.843.62 1.109 1.261 1.109.289 0 .579-.111.753-.24.179-.181.235-.336.447-.869 0 0 1.959-5.492 2.01-5.667.052-.174.24-.168.301.012.061.18 1.882 5.655 1.882 5.655.268.823.6 1.109 1.26 1.109.663 0 .964-.31 1.28-1.398l3.527-11.41c.24-.784.467-1.033.858-1.088zm35.423 12.073c-.89 0-1.227-.04-1.454-.197-.261-.152-.302-.38-.302-1.358v-9.336c0-.581 0-.716.065-.867.062-.179.261-.29.464-.29h.48a.602.602 0 0 0 .587-.62c0-.492-.27-.651-1.067-.651h-4.087c-.761 0-1.029.159-1.029.651 0 .354.268.62.602.62h.427c.146 0 .325.111.369.29.066.176.086.266.086.867V21.73c0 .555-.02.662-.086.826-.044.15-.223.286-.369.286h-.427c-.309 0-.553.27-.553.597 0 .494.244.642.98.642h8.322c.447 0 .698-.151.788-.557l.34-1.728c.118-.57-.08-.879-.483-.879-.216 0-.45.13-.598.421-.026.044-.066.143-.19.406-.273.577-.831.824-1.621.824h-1.244zm15.887-1.65c-.216 0-.45.129-.6.421-.024.043-.065.142-.19.404-.272.579-.83.826-1.618.826l-2.202.007c-.724 0-1.03-.049-1.314-.155-.35-.136-.42-.384-.42-1.561v-2.82c0-.498.07-.715.204-.805.101-.07.264-.086.899-.086h1.021c.93 0 1.062.067 1.129.512l.023.147c.067.378.266.578.598.578.464 0 .619-.266.619-1.044v-1.869c0-.778-.155-1.046-.619-1.046-.332 0-.531.178-.598.556l-.016.139c-.067.444-.2.51-1.129.51h-1.028c-.635 0-.798-.015-.899-.085-.134-.09-.204-.306-.204-.805v-2.64c0-1.18.134-1.34 1.343-1.34h2.083c1.028 0 1.475.071 1.691.641.103.271.193.436.221.48.147.29.352.347.567.347.404 0 .602-.31.484-.88l-.312-1.544c-.09-.408-.341-.558-.788-.558h-8.83c-.744 0-1.017.16-1.017.652 0 .33.273.62.57.62h.446c.13 0 .31.135.355.332.069.18.089.294.089.87v9.942c0 .6-.02.712-.09.89-.044.152-.199.287-.354.287h-.446c-.297 0-.55.27-.55.598 0 .495.253.645.996.645h8.674l.567-.003c.446 0 .697-.149.787-.557l.34-1.727c.119-.57-.08-.879-.482-.879zm28.44 8.549c-.391 0-.368.512-.368.773 0 .24.083.524.38.524h1.822c.33 0 .427.127.427.39v5.427c0 .374.27.413.683.413.424 0 .692-.044.692-.426l-.013-5.422c0-.298.18-.382.427-.382h1.806c.296 0 .407-.236.407-.666 0-.484-.175-.631-.437-.631h-5.825zm-10.4-.013c-.338 0-.455.206-.455.498v6.436c0 .39.133.548.463.548h5.683c.313 0 .39-.285.39-.635 0-.483-.102-.674-.393-.674H90.31c-.213 0-.355-.129-.355-.39v-1.1c0-.237.185-.38.39-.38h2.568c.285 0 .36-.302.36-.647 0-.398-.082-.665-.391-.665H90.31c-.203 0-.355-.12-.355-.333v-1.014c0-.193.126-.333.307-.333h4.455c.37 0 .422-.299.422-.677 0-.408-.063-.634-.403-.634h-5.701zm-10.808-.018c-.48 0-.726.066-.726.46v6.652c0 .333.213.446.623.446.387 0 .74-.026.74-.44v-2.18c0-.298.196-.556.444-.556.445 0 .771.043 1.096.327l2.38 2.558c.162.194.332.293.96.293.593 0 .966-.218.56-.662-.27-.295-2.847-3.149-2.847-3.149-.181-.201-.248-.419.018-.65 0 0 2.148-1.954 2.336-2.14.274-.272.165-.537-.08-.77-.297-.286-.607-.291-.911-.027 0 0-2.448 2.257-2.687 2.465-.217.187-.343.309-.922.309-.202 0-.346-.155-.346-.48v-2.009c0-.359-.258-.447-.638-.447zm-11.144 1.317h2.293c.769 0 1.399.405 1.399 1.24 0 .834-.63 1.238-1.4 1.238h-2.292c-.237 0-.486-.155-.486-.416v-1.681c0-.298.249-.381.486-.381zm5.053 1.24c0-1.573-1.137-2.55-2.654-2.55h-3.915c-.167 0-.321.106-.321.285l-.012 6.852c0 .333.166.416.462.416.225 0 .913.06.913-.299l-.012-1.798c0-.202.19-.37.392-.37h1.652c.26 0 .45.133.58.334l1.157 1.803c.173.257.437.327.838.327.71 0 .918-.227.688-.574-.152-.227-1.196-1.75-1.256-1.836-.115-.168-.07-.286.127-.455.39-.335 1.361-.778 1.361-2.136zm-16.643 1.964c.05-.107.805-1.629.891-1.846.078-.191.286-.183.37-.006.094.198.858 1.785.906 1.881.079.15-.055.27-.186.27h-1.8c-.177 0-.266-.12-.18-.299zm-2.732 2.588c-.2.42.426.44.616.44.214 0 .677-.036.77-.275l.431-.82c.109-.273.282-.418.477-.418h3.07c.155 0 .284.106.345.237l.482 1.001c.108.251.452.286.676.286.226 0 .898-.06.739-.41-.09-.196-3.203-6.867-3.203-6.867-.102-.217-.271-.323-.577-.323-.307 0-.479.15-.57.35l-3.256 6.8zm-8.153-3.874 2.154-2.942c.13-.203.332-.288.57-.288.26 0 .447.059.556.495l.756 6.679c.037.381-.556.382-.817.382-.19 0-.545-.109-.545-.358l-.524-3.993c-.034-.165-.096-.238-.228-.238-.106 0-.158.05-.235.142l-1.783 2.298c-.09.125-.211.203-.355.203-.2 0-.29-.056-.406-.226l-1.646-2.228a.274.274 0 0 0-.236-.116c-.13 0-.197.114-.215.27l-.513 3.864c-.05.318-.439.382-.76.382-.225 0-.604-.109-.604-.394l.757-6.51c.08-.393.165-.616.723-.616.142 0 .372.041.55.32l2.043 2.885c.108.158.233.29.368.285.133-.003.274-.142.39-.296z"/>
</svg>
